<svg xmlns="http://www.w3.org/2000/svg" width="960" height="960" viewBox="0 0 960 960" fill="none"><g stroke="#AFD5DD"><circle cx="480" cy="480" r="449" opacity=".26"/><circle cx="480" cy="480" r="444" stroke-width="2" opacity=".08"/><path d="M61 331A445 445 0 0 1 224 116M736 116A445 445 0 0 1 899 331" stroke-width="2" opacity=".22"/><circle cx="480" cy="480" r="21" opacity=".32"/><path d="M480 430V469M480 491V530M430 480H469M491 480H530" opacity=".65"/><path d="M480 35V58M480 902V925M35 480H58M902 480H925M257 94L265 108M695 852L703 866M94 257L108 265M852 695L866 703M94 703L108 695M852 265L866 257M257 866L265 852M695 108L703 94" opacity=".38"/><path d="M444 881V893M456 884V890M468 886V896M480 887V904M492 886V896M504 884V890M516 881V893" opacity=".68"/></g></svg>
